<svg id="visual" viewBox="0 0 960 540" width="960" height="540" xmlns="http://www.w3.org/2000/svg" xmlns:xlink="http://www.w3.org/1999/xlink" version="1.1"><path d="M0 482L22.8 486.3C45.7 490.7 91.3 499.3 137 503.5C182.7 507.7 228.3 507.3 274 504.5C319.7 501.7 365.3 496.3 411.2 488.2C457 480 503 469 548.8 470.2C594.7 471.3 640.3 484.7 686 494.2C731.7 503.7 777.3 509.3 823 503.8C868.7 498.3 914.3 481.7 937.2 473.3L960 465L960 541L937.2 541C914.3 541 868.7 541 823 541C777.3 541 731.7 541 686 541C640.3 541 594.7 541 548.8 541C503 541 457 541 411.2 541C365.3 541 319.7 541 274 541C228.3 541 182.7 541 137 541C91.3 541 45.7 541 22.8 541L0 541Z" fill="#45975a" stroke-linecap="round" stroke-linejoin="miter"></path></svg>